<?xml version="1.0" standalone="no"?>
<!DOCTYPE svg PUBLIC "-//W3C//DTD SVG 20010904//EN"
 "http://www.w3.org/TR/2001/REC-SVG-20010904/DTD/svg10.dtd">
<svg version="1.0" xmlns="http://www.w3.org/2000/svg"
 width="512.000000pt" height="512.000000pt" viewBox="0 0 512.000000 512.000000"
 preserveAspectRatio="xMidYMid meet">

<g transform="translate(0.000000,512.000000) scale(0.100000,-0.100000)"
fill="#000000" stroke="none">
<path d="M1265 5105 c-80 -17 -148 -57 -216 -125 -105 -104 -128 -175 -136
-412 l-6 -176 -221 -4 -221 -3 -67 -33 c-82 -40 -157 -119 -190 -200 l-23 -57
-3 -1860 c-2 -1309 0 -1879 8 -1924 6 -35 22 -85 35 -110 32 -64 109 -135 180
-168 l60 -28 2095 0 2095 0 60 28 c113 53 192 153 214 272 15 83 15 3697 0
3781 -21 116 -103 219 -217 272 -55 26 -63 27 -279 30 l-223 4 0 126 c-1 253
-31 355 -137 460 -72 71 -138 110 -223 128 -76 16 -294 18 -371 4 -86 -16
-168 -61 -232 -125 -110 -110 -137 -196 -137 -432 l0 -163 -550 0 -550 0 0
163 c0 236 -27 322 -137 432 -64 64 -146 109 -232 125 -75 14 -304 11 -376 -5z
m352 -379 l28 -24 3 -409 c2 -224 0 -428 -3 -452 -4 -26 -16 -53 -30 -67 -23
-23 -31 -24 -150 -24 -126 0 -127 0 -156 29 l-29 29 0 437 c0 313 3 443 12
458 22 42 38 46 170 47 120 0 128 -1 155 -24z m2184 11 c38 -29 39 -46 39
-492 l0 -437 -29 -29 c-29 -29 -30 -29 -156 -29 -119 0 -127 1 -150 24 -14 14
-26 41 -30 67 -3 24 -5 228 -3 452 l3 409 28 24 c27 23 35 24 155 24 84 -1
132 -5 143 -13z m769 -2907 l0 -1460 -2010 0 -2010 0 0 1460 0 1460 2010 0
2010 0 0 -1460z"/>
</g>
</svg>
