<?xml version="1.0" standalone="no"?>
<!DOCTYPE svg PUBLIC "-//W3C//DTD SVG 20010904//EN"
 "http://www.w3.org/TR/2001/REC-SVG-20010904/DTD/svg10.dtd">
<svg version="1.0" xmlns="http://www.w3.org/2000/svg"
 width="512.000000pt" height="512.000000pt" viewBox="0 0 512.000000 512.000000"
 preserveAspectRatio="xMidYMid meet">

<g transform="translate(0.000000,512.000000) scale(0.100000,-0.100000)"
fill="#000000" stroke="none">
<path d="M2495 5106 c-41 -18 -83 -69 -90 -109 -3 -18 -5 -154 -3 -304 3 -256
4 -273 24 -299 39 -53 71 -69 134 -69 63 0 95 16 134 69 20 26 21 40 21 326 0
286 -1 300 -21 326 -11 15 -32 37 -46 47 -33 25 -113 32 -153 13z"/>
<path d="M816 4410 c-42 -13 -95 -68 -107 -112 -21 -80 -6 -104 204 -316 106
-107 204 -200 219 -208 67 -35 168 -3 207 66 24 44 27 109 7 148 -8 15 -101
113 -208 219 -156 155 -201 193 -233 202 -46 12 -49 12 -89 1z"/>
<path d="M4206 4405 c-29 -10 -91 -65 -229 -202 -103 -103 -195 -200 -203
-215 -35 -67 -3 -168 66 -207 44 -24 109 -27 148 -7 15 8 113 101 219 208 161
163 193 200 202 236 22 81 -28 170 -107 192 -46 12 -48 12 -96 -5z"/>
<path d="M2375 3989 c-235 -32 -482 -132 -670 -271 -90 -66 -236 -213 -302
-302 -471 -637 -339 -1530 296 -2007 230 -172 498 -270 786 -285 481 -26 934
187 1226 575 127 169 213 361 261 579 31 140 31 424 0 564 -48 219 -134 410
-262 580 -216 287 -530 484 -882 553 -99 20 -355 28 -453 14z m355 -324 c235
-35 449 -144 620 -315 98 -98 163 -191 225 -322 198 -420 108 -925 -225 -1258
-441 -441 -1141 -438 -1585 5 -250 250 -367 612 -310 960 57 352 277 655 594
819 213 110 443 148 681 111z"/>
<path d="M95 2706 c-67 -29 -105 -106 -91 -181 9 -47 59 -102 104 -116 24 -6
136 -9 314 -7 261 3 278 4 304 24 53 39 69 71 69 134 0 63 -16 95 -69 134 -26
20 -42 21 -314 23 -223 2 -294 0 -317 -11z"/>
<path d="M4415 2706 c-67 -29 -105 -106 -91 -181 9 -47 59 -102 104 -116 24
-6 136 -9 314 -7 261 3 278 4 304 24 53 39 69 71 69 134 0 63 -16 95 -69 134
-26 20 -42 21 -314 23 -223 2 -294 0 -317 -11z"/>
<path d="M1125 1341 c-57 -36 -394 -384 -410 -425 -33 -80 20 -183 106 -206
82 -22 105 -7 317 203 107 106 200 204 208 219 20 39 17 104 -7 148 -41 73
-147 103 -214 61z"/>
<path d="M3839 1338 c-69 -39 -100 -139 -65 -206 8 -15 101 -113 208 -219 163
-161 200 -193 236 -202 121 -33 234 91 187 205 -17 42 -369 404 -417 430 -39
20 -107 17 -149 -8z"/>
<path d="M2495 786 c-41 -18 -83 -69 -90 -109 -3 -18 -5 -154 -3 -304 3 -256
4 -273 24 -299 39 -53 71 -69 134 -69 63 0 95 16 134 69 20 26 21 40 21 326 0
286 -1 300 -21 326 -11 15 -32 37 -46 47 -33 25 -113 32 -153 13z"/>
</g>
</svg>
