<?xml version="1.0" standalone="no"?>
<!DOCTYPE svg PUBLIC "-//W3C//DTD SVG 20010904//EN"
 "http://www.w3.org/TR/2001/REC-SVG-20010904/DTD/svg10.dtd">
<svg version="1.0" xmlns="http://www.w3.org/2000/svg"
 width="512.000000pt" height="512.000000pt" viewBox="0 0 512.000000 512.000000"
 preserveAspectRatio="xMidYMid meet">

<g transform="translate(0.000000,512.000000) scale(0.100000,-0.100000)"
fill="#000000" stroke="none">
<path d="M1913 5100 c-24 -10 -51 -32 -60 -48 -10 -17 -58 -147 -108 -291
l-90 -261 -363 0 c-344 0 -365 -1 -402 -20 -26 -13 -47 -34 -60 -60 -20 -39
-20 -54 -20 -2170 0 -2116 0 -2131 20 -2170 13 -26 34 -47 60 -60 39 -20 55
-20 1670 -20 1615 0 1631 0 1670 20 26 13 47 34 60 60 20 39 20 54 20 2170 0
2116 0 2131 -20 2170 -13 26 -34 47 -60 60 -37 19 -58 20 -402 20 l-363 0 -90
261 c-49 144 -98 274 -108 291 -9 16 -36 38 -60 48 -40 19 -72 20 -647 20
-575 0 -607 -1 -647 -20z m1179 -437 l55 -158 -294 -3 c-161 -1 -425 -1 -586
0 l-294 3 55 158 55 157 477 0 477 0 55 -157z m918 -2413 l0 -1950 -1450 0
-1450 0 0 1950 0 1950 1450 0 1450 0 0 -1950z"/>
<path d="M1489 3778 c-20 -11 -46 -38 -58 -58 -21 -37 -21 -45 -21 -669 0
-613 1 -633 20 -671 13 -26 34 -47 60 -60 39 -20 57 -20 1070 -20 992 0 1032
1 1068 19 22 11 46 35 60 59 l22 40 0 631 c0 613 -1 633 -20 671 -13 26 -34
47 -60 60 -39 20 -56 20 -1072 20 -1033 0 -1033 0 -1069 -22z m1921 -668 c0
-214 -2 -390 -4 -390 -5 0 -1288 769 -1295 776 -2 2 289 4 647 4 l652 0 0
-390z m-1048 -116 c354 -212 645 -388 647 -390 2 -2 -289 -4 -647 -4 l-652 0
0 390 c0 215 2 390 4 390 3 0 294 -174 648 -386z"/>
<path d="M2088 1979 c-43 -22 -78 -81 -78 -129 0 -50 35 -107 80 -130 37 -19
58 -20 470 -20 412 0 433 1 470 20 45 23 80 80 80 130 0 50 -35 107 -80 130
-38 19 -58 20 -472 20 -411 -1 -435 -2 -470 -21z"/>
<path d="M1488 1479 c-43 -22 -78 -81 -78 -129 0 -50 35 -107 80 -130 39 -20
57 -20 1070 -20 1013 0 1031 0 1070 20 45 23 80 80 80 130 0 50 -35 107 -80
130 -39 20 -56 20 -1072 20 -1009 -1 -1034 -1 -1070 -21z"/>
<path d="M1488 979 c-43 -22 -78 -81 -78 -129 0 -50 35 -107 80 -130 39 -20
57 -20 1070 -20 1013 0 1031 0 1070 20 45 23 80 80 80 130 0 50 -35 107 -80
130 -39 20 -56 20 -1072 20 -1009 -1 -1034 -1 -1070 -21z"/>
</g>
</svg>
